<?xml version="1.0" encoding="utf-8"?>
<!-- Generator: Adobe Illustrator 18.0.0, SVG Export Plug-In . SVG Version: 6.00 Build 0)  -->
<!DOCTYPE svg PUBLIC "-//W3C//DTD SVG 1.1//EN" "http://www.w3.org/Graphics/SVG/1.1/DTD/svg11.dtd">
<svg version="1.1" id="Layer_1" xmlns="http://www.w3.org/2000/svg" xmlns:xlink="http://www.w3.org/1999/xlink" x="0px" y="0px"
	 viewBox="0 0 158.1 157.7" enable-background="new 0 0 158.1 157.7" xml:space="preserve">
<path fill="none" stroke="#666666" stroke-width="2" stroke-miterlimit="10" d="M142.1,38.4c0,0-3,1.3-5,2.1c-2,0.9-5-3-5-3l0,0
	c-3.8-4.8-8.1-9-12.9-12.7l-2.5-2c0,0-1.4-0.9-0.6-3c0.8-2,2-5.1,2-5.1c0.9-2.3-0.2-4.9-2.5-5.9L100.8,3c-2.3-0.9-4.9,0.2-5.9,2.5
	c0,0-1.2,3-2,5.1c-0.8,2-5.7,1.4-5.7,1.4l0,0c-6-0.8-12-0.7-18.1,0.2l0,0c0,0-4.9,0.7-5.7-1.3c-0.9-2-2.1-5-2.1-5
	c-1-2.3-3.6-3.4-5.9-2.4L40.7,9.7c-2.3,1-3.4,3.6-2.4,5.9c0,0,1.3,3,2.1,5c0.9,2-3,5-3,5l0,0c-4.9,3.8-9.1,8.1-12.7,12.9l0,0
	c0,0-2.9,4-5,3.1c-2-0.8-5.1-2-5.1-2c-2.3-0.9-4.9,0.2-5.9,2.5L2.9,56.9c-0.9,2.3,0.2,4.9,2.5,5.9c0,0,3,1.2,5.1,2
	c2,0.8,1.4,5.7,1.4,5.7l0,0c-0.7,5.9-0.7,12,0.2,18.1l0,0c0,0,0.7,4.9-1.3,5.7c-2,0.9-5,2.1-5,2.1c-2.3,1-3.4,3.6-2.4,5.9L9.6,117
	c1,2.3,3.6,3.4,5.9,2.4c0,0,3-1.3,5-2.1c2-0.9,5,3,5,3l0,0c3.8,4.9,8.1,9.1,12.9,12.7l0,0c0,0,4,2.9,3.1,5c-0.8,2-2,5.1-2,5.1
	c-0.9,2.3,0.2,4.9,2.5,5.9l14.7,5.9c2.3,0.9,4.9-0.2,5.9-2.5c0,0,1.2-3,2-5.1c0.8-2,5.7-1.4,5.7-1.4l0,0c5.9,0.7,12,0.7,18.1-0.2
	l2.7-0.2c0,0,2.2-0.5,3,1.5c0.9,2,2.1,5,2.1,5c1,2.3,3.6,3.4,5.9,2.4l14.6-6.2c2.3-1,3.4-3.6,2.4-5.9c0,0-1.3-3-2.1-5
	c-0.9-2,3-5,3-5l0,0c4.9-3.8,9.1-8.1,12.7-12.9l0,0c0,0,2.9-4,5-3.1c2,0.8,5.1,2,5.1,2c2.3,0.9,4.9-0.2,5.9-2.5l5.9-14.7
	c0.9-2.3-0.2-4.9-2.5-5.9c0,0-3-1.2-5.1-2c-2-0.8-1.4-5.7-1.4-5.7l0,0c0.8-6,0.7-12-0.2-18.1l0,0c0,0-0.7-4.9,1.3-5.7
	c2-0.9,5-2.1,5-2.1c2.3-1,3.4-3.6,2.4-5.9L148,40.8C147,38.5,144.4,37.4,142.1,38.4z"/>
<g>
	<path fill="#FF0000" d="M69.3,54.5c-0.9,0-1.5,0.2-2,0.5c-0.5,0.3-0.9,0.7-1.2,1.2c-0.3,0.5-0.5,1.1-0.5,1.7
		c-0.1,0.6-0.1,1.2-0.1,1.8v10.8c0,1.7-0.3,3.2-0.8,4.2s-1.2,1.9-1.9,2.5s-1.5,1-2.3,1.2c-0.8,0.2-1.5,0.4-2,0.4v0.2
		c0.5,0,1.2,0.2,2,0.5c0.8,0.3,1.6,0.7,2.3,1.3s1.4,1.4,1.9,2.3c0.5,1,0.8,2.2,0.8,3.7v11.4c0,0.5,0,1.1,0.1,1.7s0.2,1.2,0.5,1.7
		c0.3,0.5,0.7,0.9,1.2,1.2c0.5,0.3,1.2,0.5,2,0.5h3.8v7.9h-9c-0.8,0-1.7-0.2-2.7-0.6c-1-0.4-2-1-2.8-1.8c-0.9-0.8-1.6-1.8-2.2-3
		c-0.6-1.2-0.9-2.6-0.9-4.2V87.9c0-1.1-0.2-2-0.7-2.8s-1-1.4-1.7-1.8c-0.7-0.4-1.4-0.8-2.1-1c-0.8-0.2-1.4-0.3-1.9-0.3v-6.2
		c0.5,0,1.2-0.1,1.9-0.3c0.8-0.2,1.5-0.6,2.1-1.1c0.7-0.5,1.2-1.2,1.7-2s0.7-1.8,0.7-3V56.1c0-1.6,0.3-3,0.9-4.2
		c0.6-1.2,1.4-2.2,2.2-3c0.9-0.8,1.8-1.4,2.8-1.8c1-0.4,1.9-0.6,2.7-0.6h9v7.9H69.3z"/>
	<path fill="#FF0000" d="M88.3,103.3c0.9,0,1.5-0.2,2-0.5c0.5-0.3,0.9-0.7,1.2-1.2c0.3-0.5,0.5-1.1,0.5-1.7s0.1-1.2,0.1-1.7V86.9
		c0-1.5,0.3-2.8,0.8-3.7c0.5-1,1.2-1.7,1.9-2.3c0.7-0.6,1.5-1,2.3-1.3c0.8-0.3,1.5-0.4,2-0.5v-0.2c-0.5,0-1.2-0.2-2-0.4
		c-0.8-0.2-1.6-0.7-2.3-1.2c-0.7-0.6-1.4-1.4-1.9-2.5c-0.5-1.1-0.8-2.5-0.8-4.2V59.7c0-0.6,0-1.2-0.1-1.8c-0.1-0.6-0.2-1.2-0.5-1.7
		c-0.3-0.5-0.7-0.9-1.2-1.2c-0.5-0.3-1.2-0.5-2-0.5h-3.8v-7.9h9c0.8,0,1.7,0.2,2.7,0.6c1,0.4,2,1,2.8,1.8c0.9,0.8,1.6,1.8,2.2,3
		c0.6,1.2,0.9,2.6,0.9,4.2v13.3c0,1.2,0.2,2.2,0.7,3c0.5,0.8,1,1.5,1.7,2c0.7,0.5,1.4,0.9,2.1,1.1s1.4,0.3,2,0.3V82
		c-0.6,0-1.2,0.1-2,0.3s-1.5,0.5-2.1,1c-0.7,0.5-1.2,1.1-1.7,1.8c-0.5,0.8-0.7,1.7-0.7,2.8v13.8c0,1.6-0.3,3-0.9,4.2
		c-0.6,1.2-1.4,2.2-2.2,3c-0.9,0.8-1.8,1.4-2.8,1.8c-1,0.4-1.9,0.6-2.7,0.6h-9v-7.9H88.3z"/>
</g>
</svg>
