<?xml version="1.0" encoding="utf-8"?>
<!-- Generator: Adobe Illustrator 18.0.0, SVG Export Plug-In . SVG Version: 6.00 Build 0)  -->
<!DOCTYPE svg PUBLIC "-//W3C//DTD SVG 1.1//EN" "http://www.w3.org/Graphics/SVG/1.1/DTD/svg11.dtd">
<svg version="1.1" id="Layer_1" xmlns="http://www.w3.org/2000/svg" xmlns:xlink="http://www.w3.org/1999/xlink" x="0px" y="0px"
	 viewBox="0 0 158.1 157.7" enable-background="new 0 0 158.1 157.7" xml:space="preserve">
<polygon fill="none" stroke="#FF0000" stroke-width="2" stroke-miterlimit="10" points="488.2,73 451.7,94.4 415.2,73 415.2,30.1 
	451.7,8.7 488.2,30.1 "/>
<polygon fill="none" stroke="#4D4D4D" stroke-width="2" stroke-miterlimit="10" points="448.2,142.5 410.7,164 373.2,142.5 
	373.2,99.7 410.7,78.2 448.2,99.7 "/>
<polygon fill="#666666" points="529.2,142.5 491.7,164 454.2,142.5 454.2,99.7 491.7,78.2 529.2,99.7 "/>
<g>
	<circle fill="none" stroke="#666666" stroke-width="2" stroke-miterlimit="10" cx="78.9" cy="79.2" r="76.5"/>
</g>
<path fill="none" stroke="#666666" stroke-width="2" stroke-miterlimit="10" d="M-217.7,47c0,0-3.1,1.3-5.3,2.2
	c-2.1,0.9-5.3-3.2-5.3-3.2l0,0c-4-5.1-8.5-9.5-13.6-13.3l-2.7-2.1c0,0-1.5-1-0.6-3.1c0.9-2.1,2.1-5.3,2.1-5.3c1-2.4-0.2-5.2-2.6-6.2
	l-15.5-6.2c-2.4-1-5.2,0.2-6.2,2.6c0,0-1.3,3.2-2.1,5.3c-0.9,2.1-6,1.5-6,1.5l0,0c-6.3-0.8-12.6-0.7-19,0.2l0,0c0,0-5.1,0.8-6-1.4
	c-0.9-2.1-2.2-5.3-2.2-5.3c-1-2.4-3.8-3.5-6.2-2.5l-15.3,6.5c-2.4,1-3.5,3.8-2.5,6.2c0,0,1.3,3.1,2.2,5.3c0.9,2.1-3.2,5.3-3.2,5.3
	l0,0c-5.1,4-9.6,8.5-13.3,13.6l0,0c0,0-3.1,4.2-5.2,3.3c-2.1-0.9-5.3-2.1-5.3-2.1c-2.4-1-5.2,0.2-6.2,2.6l-6.2,15.5
	c-1,2.4,0.2,5.2,2.6,6.2c0,0,3.2,1.3,5.3,2.1c2.1,0.9,1.5,6,1.5,6l0,0c-0.8,6.2-0.7,12.6,0.2,19l0,0c0,0,0.8,5.1-1.4,6
	c-2.1,0.9-5.3,2.2-5.3,2.2c-2.4,1-3.5,3.8-2.5,6.2l6.5,15.3c1,2.4,3.8,3.5,6.2,2.5c0,0,3.1-1.3,5.3-2.2c2.1-0.9,5.3,3.2,5.3,3.2l0,0
	c4,5.1,8.5,9.6,13.6,13.3l0,0c0,0,4.2,3.1,3.3,5.2c-0.9,2.1-2.1,5.3-2.1,5.3c-1,2.4,0.2,5.2,2.6,6.2l15.4,6.2c2.4,1,5.2-0.2,6.2-2.6
	c0,0,1.3-3.2,2.1-5.3c0.9-2.1,6-1.5,6-1.5l0,0c6.2,0.8,12.6,0.7,19-0.2l2.9-0.2c0,0,2.3-0.6,3.2,1.6c0.9,2.1,2.2,5.3,2.2,5.3
	c1,2.4,3.8,3.5,6.2,2.5l15.3-6.5c2.4-1,3.5-3.8,2.5-6.2c0,0-1.3-3.1-2.2-5.3c-0.9-2.1,3.2-5.3,3.2-5.3l0,0c5.1-4,9.6-8.5,13.3-13.6
	l0,0c0,0,3.1-4.2,5.2-3.3c2.1,0.9,5.3,2.1,5.3,2.1c2.4,1,5.2-0.2,6.2-2.6l6.2-15.4c1-2.4-0.2-5.2-2.6-6.2c0,0-3.2-1.3-5.3-2.1
	c-2.1-0.9-1.5-6-1.5-6l0,0c0.8-6.3,0.7-12.7-0.2-19l0,0c0,0-0.8-5.1,1.4-6c2.1-0.9,5.3-2.2,5.3-2.2c2.4-1,3.5-3.8,2.5-6.2l-6.5-15.3
	C-212.5,47.1-215.3,45.9-217.7,47z"/>
<g>
	<path fill="#FF0000" d="M-294.2,63.9c-0.9,0-1.6,0.2-2.1,0.5c-0.5,0.3-0.9,0.8-1.2,1.3c-0.3,0.5-0.5,1.1-0.6,1.8
		c-0.1,0.6-0.1,1.3-0.1,1.9v11.3c0,1.8-0.3,3.3-0.9,4.4c-0.6,1.1-1.2,2-2,2.6c-0.8,0.6-1.6,1.1-2.4,1.3c-0.8,0.2-1.5,0.4-2.1,0.4
		v0.2c0.5,0,1.2,0.2,2.1,0.5c0.8,0.3,1.7,0.7,2.4,1.3c0.8,0.6,1.4,1.4,2,2.5c0.6,1,0.9,2.3,0.9,3.9v11.9c0,0.5,0,1.1,0.1,1.8
		s0.3,1.2,0.6,1.8c0.3,0.5,0.7,1,1.2,1.3c0.5,0.3,1.2,0.5,2.1,0.5h4v8.3h-9.5c-0.8,0-1.8-0.2-2.9-0.6c-1.1-0.4-2.1-1-3-1.9
		c-0.9-0.8-1.7-1.9-2.3-3.1c-0.6-1.3-1-2.7-1-4.4V99c0-1.1-0.2-2.1-0.7-2.9c-0.5-0.8-1.1-1.4-1.8-1.9c-0.7-0.5-1.4-0.8-2.2-1
		c-0.8-0.2-1.5-0.3-2-0.3v-6.5c0.5,0,1.2-0.1,2-0.3c0.8-0.2,1.5-0.6,2.2-1.1c0.7-0.5,1.3-1.2,1.8-2.1c0.5-0.9,0.7-1.9,0.7-3.2v-14
		c0-1.7,0.3-3.2,1-4.4c0.6-1.3,1.4-2.3,2.3-3.1c0.9-0.8,1.9-1.4,3-1.9c1.1-0.4,2-0.6,2.9-0.6h9.5v8.3H-294.2z"/>
	<path fill="#FF0000" d="M-274.2,115.1c0.9,0,1.6-0.2,2.1-0.5c0.5-0.3,0.9-0.8,1.2-1.3s0.5-1.1,0.6-1.8s0.1-1.2,0.1-1.8V97.8
		c0-1.6,0.3-2.9,0.9-3.9c0.6-1,1.2-1.8,2-2.5c0.8-0.6,1.6-1.1,2.4-1.3c0.8-0.3,1.5-0.4,2.1-0.5v-0.2c-0.5,0-1.2-0.2-2.1-0.4
		c-0.8-0.2-1.7-0.7-2.4-1.3c-0.8-0.6-1.4-1.5-2-2.6c-0.6-1.1-0.9-2.6-0.9-4.4V69.3c0-0.6,0-1.2-0.1-1.9c-0.1-0.6-0.3-1.2-0.6-1.8
		c-0.3-0.5-0.7-1-1.2-1.3c-0.5-0.3-1.2-0.5-2.1-0.5h-4v-8.3h9.5c0.8,0,1.8,0.2,2.9,0.6c1.1,0.4,2.1,1,3,1.9c0.9,0.8,1.7,1.9,2.3,3.1
		c0.6,1.3,1,2.7,1,4.4v14c0,1.2,0.2,2.3,0.7,3.2c0.5,0.9,1.1,1.6,1.8,2.1c0.7,0.5,1.4,0.9,2.2,1.1s1.5,0.3,2.1,0.3v6.5
		c-0.6,0-1.3,0.1-2.1,0.3s-1.5,0.6-2.2,1c-0.7,0.5-1.3,1.1-1.8,1.9c-0.5,0.8-0.7,1.8-0.7,2.9v14.5c0,1.7-0.3,3.2-1,4.4
		c-0.6,1.3-1.4,2.3-2.3,3.1c-0.9,0.8-1.9,1.4-3,1.9c-1.1,0.4-2,0.6-2.9,0.6h-9.5v-8.3H-274.2z"/>
</g>
<polyline fill="none" stroke="#FF0000" stroke-miterlimit="10" points="14.4,80.6 36.7,72.9 57,91.7 75.7,72.9 95.4,82.3 110,61.8 
	121,83.9 139.1,72.9 "/>
<circle fill="#FF0000" cx="14.7" cy="80.6" r="2"/>
<circle fill="#FF0000" cx="56.9" cy="91.4" r="2"/>
<circle fill="#FF0000" cx="36.3" cy="72.7" r="2"/>
<circle fill="#FF0000" cx="75.5" cy="72.7" r="2"/>
<circle fill="#FF0000" cx="95.1" cy="81.6" r="2"/>
<circle fill="#FF0000" cx="109.8" cy="61.9" r="2"/>
<circle fill="#FF0000" cx="120.6" cy="83.5" r="2"/>
<circle fill="#FF0000" cx="139.3" cy="72.7" r="2"/>
</svg>
